<?xml version="1.0" encoding="UTF-8"?>
<svg width="624px" height="569px" viewBox="0 0 624 569" version="1.1" xmlns="http://www.w3.org/2000/svg" xmlns:xlink="http://www.w3.org/1999/xlink">
    <!-- Generator: Sketch 54 (76480) - https://sketchapp.com -->
    <title>Artboard</title>
    <desc>Created with Sketch.</desc>
    <defs>
        <filter x="-45.7%" y="-45.7%" width="191.5%" height="191.5%" filterUnits="objectBoundingBox" id="filter-1">
            <feGaussianBlur stdDeviation="50" in="SourceGraphic"></feGaussianBlur>
        </filter>
        <filter x="-85.2%" y="-85.2%" width="270.5%" height="270.5%" filterUnits="objectBoundingBox" id="filter-2">
            <feGaussianBlur stdDeviation="50" in="SourceGraphic"></feGaussianBlur>
        </filter>
        <filter x="-12.9%" y="-12.7%" width="125.8%" height="125.4%" filterUnits="objectBoundingBox" id="filter-3">
            <feGaussianBlur stdDeviation="46" in="SourceGraphic"></feGaussianBlur>
        </filter>
    </defs>
    <g id="Artboard" stroke="none" stroke-width="1" fill="none" fill-rule="evenodd">
        <rect id="Rectangle" fill="#282E35" x="-186" y="-16" width="810" height="585"></rect>
        <circle id="Oval" fill="#D455FF" style="mix-blend-mode: overlay;" filter="url(#filter-1)" cx="358" cy="390" r="164"></circle>
        <g id="Group" transform="translate(17.000000, -16.000000)" stroke="#282E35">
            <polygon id="Path-Copy-5" fill="#4FB4DF" points="73 138 143 164 119 104"></polygon>
            <polygon id="Path-Copy-7" fill="#8CDCFF" points="73 138 119 104 108 16"></polygon>
            <polygon id="Path-Copy-72" fill="#49FFFF" points="298 23 341 128 317 2"></polygon>
            <polygon id="Path-Copy-77" fill="#44EFFF" points="341 127 360 145 374 145 317 2"></polygon>
            <polygon id="Path-Copy-78" fill="#36D5EE" points="373 145 403 136 317 2"></polygon>
            <polygon id="Path-Copy-79" fill="#2CB9D3" points="403 136 375 48 317 2"></polygon>
            <polygon id="Path-Copy-73" fill="#73FFFF" points="290 97 341 127 298 23"></polygon>
            <polygon id="Path-Copy-74" fill="#89FFFF" points="227 23 290 97 298 23"></polygon>
            <polygon id="Path-Copy-76" fill="#89FFFF" points="108 16 119 104 227 104 227 23"></polygon>
            <polygon id="Path-Copy-75" fill="#9AFAFB" points="227 104 290 97 227 23"></polygon>
            <polygon id="Path-Copy-8" fill="#ACC0FF" points="73 138 108 16 73 0 31 97 42 164"></polygon>
            <polygon id="Path-Copy-6" fill="#617DC6" points="87 198 143 164 73 138"></polygon>
            <polygon id="Path-Copy-11" fill="#232D43" points="119 190 143 164 87 198"></polygon>
            <polygon id="Path-Copy-12" fill="#514986" points="190 202 144 163 119 190"></polygon>
            <polygon id="Path-Copy-13" fill="#3A083A" points="190 202 119 190 160 220"></polygon>
            <polygon id="Path-Copy-9" fill="#7569CC" points="87 198 73 138 42 164"></polygon>
            <polygon id="Path-Copy-10" fill="#7863CA" points="87 198 42 164 71 210"></polygon>
            <polygon id="Path-Copy-29" fill="#AA12C0" points="45 220 42 164 34 220"></polygon>
            <polygon id="Path-Copy-69" fill="#210018" points="21 226 10 205 7 210"></polygon>
            <polygon id="Path-Copy-71" fill="#0F000C" points="7 210 10 205 0 206"></polygon>
            <polygon id="Path-Copy-70" fill="#600667" points="30 262 21 226 7 210 0 206 15 237"></polygon>
            <polygon id="Path-Copy-32" fill="#B174FF" points="44 220 34 220 30 263"></polygon>
            <polygon id="Path-Copy-33" fill="#A177FC" points="55 237 44 220 30 263"></polygon>
            <polygon id="Path-Copy-35" fill="#B79FFF" points="42 297 55 237 30 262"></polygon>
            <polygon id="Path-Copy-36" fill="#ACCBFF" points="57 305 55 237 42 297"></polygon>
            <polygon id="Path-Copy-37" fill="#95B8FF" points="89 319 55 237 57 305"></polygon>
            <polygon id="Path-Copy-38" fill="#9FB8FF" points="92 256 77 254 55 237 89 319"></polygon>
            <polygon id="Path-Copy-39" fill="#40DFFD" points="176 301 141 258 102 256 92 256 89 319"></polygon>
            <polygon id="Path-Copy-34" fill="#8BAAFF" points="60 231 44 220 55 237"></polygon>
            <polygon id="Path-Copy-45" fill="#B8B6FF" points="60 231 55 237 63 233"></polygon>
            <polygon id="Path-Copy-60" fill="#92A0FA" points="63 233 55 237 69 238"></polygon>
            <polygon id="Path-Copy-61" fill="#6E0087" points="71 234 63 233 69 238"></polygon>
            <polygon id="Path-Copy-62" fill="#800591" points="84 234 71 234 69 238 82 239"></polygon>
            <polygon id="Path-Copy-46" fill="#930DA3" points="55 237 77 254 84 239"></polygon>
            <polygon id="Path-Copy-47" fill="#700C75" points="84 234 77 254 101 240"></polygon>
            <polygon id="Path-Copy-48" fill="#663C96" points="77 254 92 256 101 240"></polygon>
            <polygon id="Path-Copy-49" fill="#7E3795" points="92 256 102 256 105 244"></polygon>
            <polygon id="Path-Copy-51" fill="#07292D" points="102 256 135 252 123 244 105 244"></polygon>
            <polygon id="Path-Copy-52" fill="#0199A9" points="135 252 155 232 123 244"></polygon>
            <polygon id="Path-Copy-55" fill="#2CD9EE" points="168 250 155 232 141 258"></polygon>
            <polygon id="Path-Copy-56" fill="#36B4D0" points="141 258 155 232 135 252"></polygon>
            <polygon id="Path-Copy-57" fill="#2C9CB8" points="135 252 141 258 102 256"></polygon>
            <polygon id="Path-Copy-54" fill="#40E2FC" points="123 244 155 232 138 232"></polygon>
            <polygon id="Path-Copy-58" fill="#40E2FC" points="126 232 154 230 149 224"></polygon>
            <polygon id="Path-Copy-59" fill="#04192D" points="126 232 84 234 101 240 138 232 155 232 154 230"></polygon>
            <polygon id="Path-Copy-53" fill="#189EB3" points="123 244 138 232 101 240 105 244"></polygon>
            <polygon id="Path-Copy-50" fill="#773191" points="92 256 105 244 101 240"></polygon>
            <polygon id="Path-Copy-30" fill="#C933E9" points="42 164 10 136 33 230"></polygon>
            <polygon id="Path-Copy-68" fill="#CC43F3" points="10 136 5 160 10 205 21 226 30 260 34 228"></polygon>
            <polygon id="Path-Copy-31" fill="#C951FE" points="31 97 10 136 42 164"></polygon>
            <polygon id="Path-Copy-3" fill="#3BE7FF" points="290 97 258 164 318 145"></polygon>
            <polygon id="Path-Copy-4" fill="#41F1FF" points="290 97 318 145 341 127"></polygon>
            <polygon id="Path-Copy-16" fill="#2BC4DB" points="318 145 360 145 341 127"></polygon>
            <polygon id="Path-Copy-17" fill="#22A0B8" points="331 186 360 145 318 145"></polygon>
            <polygon id="Path-Copy-23" fill="#148FA3" points="331 186 318 145 313.587184 152.128395 292 187"></polygon>
            <polygon id="Path-Copy-24" fill="#0A5C71" points="287 177 318 145 258 164"></polygon>
            <polygon id="Path-Copy-26" fill="#139FB2" points="234 210 258 164 227 202"></polygon>
            <polygon id="Path-Copy-27" fill="#177C94" points="287 177 258 164 234 210"></polygon>
            <polygon id="Path-Copy-28" fill="#1C3D4C" points="287 177 234 210 264 210"></polygon>
            <polygon id="Path-Copy-25" fill="#4FA9B6" points="292 187 318 145 287 177 263 211"></polygon>
            <polygon id="Path-Copy-63" fill="#13CFDF" points="295 224 281 196 263 211 261 224"></polygon>
            <polygon id="Path-Copy-64" fill="#40E3FF" points="309 226 292 187 281 196 295 224"></polygon>
            <polygon id="Path-Copy-65" fill="#5DFFFF" points="328 226 331 186 292 187 309 226"></polygon>
            <polygon id="Path-Copy-66" fill="#2CCCE3" points="351 223 357 206 331 186 328 226"></polygon>
            <polygon id="Path-Copy-67" fill="#1AB0C3" points="362 219 363 209 356 205 351 223"></polygon>
            <polygon id="Path-Copy-18" fill="#188098" points="356 205 360 145 331 186"></polygon>
            <polygon id="Path-Copy-19" fill="#168CA2" points="373 164 360 145 356 205"></polygon>
            <polygon id="Path-Copy-22" fill="#20AEC3" points="374 145 360 145 373 164"></polygon>
            <polygon id="Path-Copy-20" fill="#175168" points="384 184 373 164 356 205 363 209"></polygon>
            <polygon id="Path-Copy-40" fill="#0B8094" points="387 202 384 184 363 209 362 219"></polygon>
            <polygon id="Path-Copy-41" fill="#21B7CD" points="389 226 387 202 362 219"></polygon>
            <polygon id="Path-Copy-21" fill="#1B829B" points="403 136 374 145 373 164 384 184"></polygon>
            <polygon id="Path-Copy-42" fill="#177089" points="403 136 384 184 387 202 398 214"></polygon>
            <polygon id="Path-Copy-44" fill="#195164" points="403 136 399 184 398 214 405 185 415 179"></polygon>
            <polygon id="Path-Copy-43" fill="#1D88A1" points="398 214 387 202 389 226 398 246"></polygon>
            <polygon id="Path-Copy-109" fill="#4CF5FF" points="407 191 399 216 400 224 412 202 429 188 415 188"></polygon>
            <polygon id="Path-Copy-110" fill="#55FDFF" points="408 199 400 224 413 218 418 206 429 188"></polygon>
            <polygon id="Path-2" fill="#3FECFF" points="87 198 126 232 160 220 119 190"></polygon>
            <polygon id="Path-2-Copy" fill="#6DC7FF" points="84 234 94 234 110 218 87 198"></polygon>
            <polygon id="Path-2-Copy-3" fill="#A9A0FF" points="71 210 71 234 84 234 87 198"></polygon>
            <polygon id="Path-2-Copy-4" fill="#B861FF" points="57 229 63 233 71 234 71 210"></polygon>
            <polygon id="Path-2-Copy-5" fill="#9B00A0" points="44 220 57 229 71 210 42 164"></polygon>
            <polygon id="Path-2-Copy-2" fill="#2DD7EC" points="113 234 119 234 126 232 110 218"></polygon>
            <polygon id="Path-3" fill="#8677E5" points="160 220 190 202 192 215"></polygon>
            <polygon id="Path-3-Copy" fill="#8F5CDF" points="168 250 160 220 197 241"></polygon>
            <polygon id="Path-3-Copy-22" fill="#22BACF" points="168 250 149 224 160 220"></polygon>
            <polygon id="Path-3-Copy-2" fill="#C474FF" points="176 301 168 250 199 292"></polygon>
            <polygon id="Path-3-Copy-4" fill="#48E8FF" points="151 314 176 301 166 327"></polygon>
            <polygon id="Path-3-Copy-7" fill="#30D3EB" points="89 319 176 301 151 314"></polygon>
            <polygon id="Path-3-Copy-8" fill="#27CBE1" points="89 319 151 314 151 336"></polygon>
            <polygon id="Path-3-Copy-9" fill="#1AB6CA" points="89 319 151 336 121 417"></polygon>
            <polygon id="Path-3-Copy-13" fill="#9259D7" points="42 297 89 319 121 417"></polygon>
            <polygon id="Path-3-Copy-16" fill="#887BE7" points="42 297 121 417 151 495"></polygon>
            <polygon id="Path-3-Copy-36" fill="#A016B4" points="42 297 151 495 126 495"></polygon>
            <polygon id="Path-3-Copy-37" fill="#C130E5" points="42 297 126 495 92 456 64 411"></polygon>
            <polygon id="Path-3-Copy-38" fill="#CC42F3" points="30 305 42 297 64 411"></polygon>
            <polygon id="Path-3-Copy-137" fill="#9226B2" points="30 305 15 236 30 262 42 297"></polygon>
            <polygon id="Path-3-Copy-5" fill="#63B0EB" points="151 336 151 314 166 327"></polygon>
            <polygon id="Path-3-Copy-6" fill="#84C3FF" points="163 341 151 336 166 327"></polygon>
            <polygon id="Path-3-Copy-10" fill="#88B5FF" points="121 417 151 336 163 341 163 350 161 363"></polygon>
            <polygon id="Path-3-Copy-11" fill="#51CFF7" points="139 419 161 363 168 384"></polygon>
            <polygon id="Path-3-Copy-17" fill="#A03FD0" points="175 530 167 536 126 495 151 495"></polygon>
            <polygon id="Path-3-Copy-100" fill="#7C0085" points="166 585 121 585 126 495 159 528"></polygon>
            <polygon id="Path-3-Copy-120" fill="#92009F" points="122 585 101 585 108 474 126 495"></polygon>
            <polygon id="Path-3-Copy-121" fill="#B823D4" points="101 585 96 585 99 463 108 474"></polygon>
            <polygon id="Path-3-Copy-119" fill="#BF2FDB" points="121 585 111 585 126 495"></polygon>
            <polygon id="Path-3-Copy-101" fill="#27001F" points="166 585 159 528 167 536"></polygon>
            <polygon id="Path-3-Copy-102" fill="#240028" points="166 585 167 536 175 539"></polygon>
            <polygon id="Path-3-Copy-105" fill="#170609" points="187 585 189 562 204 585"></polygon>
            <polygon id="Path-3-Copy-106" fill="#3A0033" points="189 562 175 539 206 550"></polygon>
            <polygon id="Path-3-Copy-107" fill="#170511" points="213 552 189 562 206 550"></polygon>
            <polygon id="Path-3-Copy-108" fill="#260C22" points="214 585 203 585 189 562 213 552"></polygon>
            <polygon id="Path-3-Copy-109" fill="#010000" points="241 585 214 585 213 552 238 550"></polygon>
            <polygon id="Path-3-Copy-110" fill="#0F0306" points="288 585 241 585 238 550 268 540"></polygon>
            <polygon id="Path-3-Copy-111" fill="#060000" points="288 585 268 540 283 528"></polygon>
            <polygon id="Path-3-Copy-112" fill="#060000" points="288 585 283 528 297 513 317 491 311 547"></polygon>
            <polygon id="Path-3-Copy-113" fill="#1E0F10" points="311 547 317 492 347 452 351 495"></polygon>
            <polygon id="Path-3-Copy-114" fill="#231B20" points="297 513 345 423 367 421 348 452 317 492"></polygon>
            <polygon id="Path-3-Copy-115" fill="#1B89A0" points="341 507 351 495 359 585 353 585"></polygon>
            <polygon id="Path-3-Copy-116" fill="#31D4EC" points="311 547 341 508 353 585 288 585"></polygon>
            <polygon id="Path-3-Copy-104" fill="#300E2C" points="166 585 174 544 189 562 187 585"></polygon>
            <polygon id="Path-3-Copy-99" fill="#8E1BA6" points="196 547 167 536 175 530"></polygon>
            <polygon id="Path-3-Copy-103" fill="#86007E" points="189 562 167 536 175 539"></polygon>
            <polygon id="Path-3-Copy-18" fill="#608CCF" points="151 495 137 428 150 438"></polygon>
            <polygon id="Path-3-Copy-118" fill="#A143D4" points="151 495 121 417 137 428"></polygon>
            <polygon id="Path-3-Copy-19" fill="#A75CE8" points="151 495 150 438 161 460"></polygon>
            <polygon id="Path-3-Copy-64" fill="#62EFFF" points="195 499 185 491 216 483"></polygon>
            <polygon id="Path-3-Copy-39" fill="#9A8CFF" points="161 460 150 438 160 435 181 460"></polygon>
            <polygon id="Path-3-Copy-53" fill="#825EC7" points="151 495 161 460 181 460 166 470"></polygon>
            <polygon id="Path-3-Copy-55" fill="#654B9D" points="168 485 151 495 166 470 194 469 185 491"></polygon>
            <polygon id="Path-3-Copy-40" fill="#8DB8FF" points="181 460 160 435 176 437 189 441"></polygon>
            <polygon id="Path-3-Copy-41" fill="#3AB8D7" points="198 460 181 460 189 441 198 443"></polygon>
            <polygon id="Path-3-Copy-54" fill="#540D4C" points="194 469 166 470 181 460 198 460"></polygon>
            <polygon id="Path-3-Copy-42" fill="#2CDBEF" points="226 458 198 460 198 443"></polygon>
            <polygon id="Path-3-Copy-56" fill="#1C3446" points="216 483 185 491 194 469"></polygon>
            <polygon id="Path-3-Copy-65" fill="#517CB8" points="185 491 159 507 168 485"></polygon>
            <polygon id="Path-3-Copy-68" fill="#75C3FF" points="195 499 192 525 185 491"></polygon>
            <polygon id="Path-3-Copy-67" fill="#8C72E8" points="168 485 159 507 151 495"></polygon>
            <polygon id="Path-3-Copy-66" fill="#9293FF" points="185 491 192 525 175 530 159 507"></polygon>
            <polygon id="Path-3-Copy-78" fill="#561354" points="192 525 213 539 196 547 175 530"></polygon>
            <polygon id="Path-3-Copy-63" fill="#30D3EB" points="216 483 213 539 192 525 195 499"></polygon>
            <polygon id="Path-3-Copy-69" fill="#41E6FF" points="216 483 232 511 232 528 213 539"></polygon>
            <polygon id="Path-3-Copy-70" fill="#55FFFF" points="215 483 245 485 278 498 265 510 232 511"></polygon>
            <polygon id="Path-3-Copy-57" fill="#1F1516" points="228 476 198 472 194 469 198 460 226 458"></polygon>
            <polygon id="Path-3-Copy-60" fill="#1A859E" points="222 483 216 483 198 472 228 476"></polygon>
            <polygon id="Path-3-Copy-71" fill="#1A859E" points="241 525 232 511 265 510"></polygon>
            <polygon id="Path-3-Copy-77" fill="#251917" points="213 552 196 547 213 539"></polygon>
            <polygon id="Path-3-Copy-73" fill="#3AE1FC" points="254 534 241 525 265 510"></polygon>
            <polygon id="Path-3-Copy-74" fill="#078E9F" points="254 534 235 538 213 539 232 528 241 525"></polygon>
            <polygon id="Path-3-Copy-75" fill="#0D546A" points="283 528 268 540 254 534 265 510"></polygon>
            <polygon id="Path-3-Copy-79" fill="#0B90A1" points="297 513 283 528 265 510 278 498"></polygon>
            <polygon id="Path-3-Copy-76" fill="#262123" points="268 540 238 550 213 552 213 539 254 534"></polygon>
            <polygon id="Path-3-Copy-72" fill="#30D9F0" points="241 525 232 528 232 511"></polygon>
            <polygon id="Path-3-Copy-43" fill="#37DEF7" points="255 453 226 458 243 441"></polygon>
            <polygon id="Path-3-Copy-58" fill="#1C3037" points="255 453 228 476 226 458"></polygon>
            <polygon id="Path-3-Copy-59" fill="#18778F" points="255 453 245 485 222 483 228 476"></polygon>
            <polygon id="Path-3-Copy-44" fill="#46FFFF" points="226 458 198 443 243 441"></polygon>
            <polygon id="Path-3-Copy-45" fill="#46F1FF" points="255 453 243 441 260 436"></polygon>
            <polygon id="Path-3-Copy-62" fill="#22BCD2" points="278 498 245 485 285 464"></polygon>
            <polygon id="Path-3-Copy-46" fill="#32D8EF" points="278 432 268 452 255 453 260 436"></polygon>
            <polygon id="Path-3-Copy-61" fill="#1F4755" points="268 452 285 464 245 485 255 453"></polygon>
            <polygon id="Path-3-Copy-49" fill="#69FFFF" points="287 431 260 436 237 431 267 429"></polygon>
            <polygon id="Path-3-Copy-50" fill="#5DFFFF" points="260 436 243 441 218 436 237 431"></polygon>
            <polygon id="Path-3-Copy-51" fill="#61FFFF" points="243 441 198 443 189 441 160 435 189 433 220 436"></polygon>
            <polygon id="Path-3-Copy-47" fill="#21AEC4" points="297 443 285 464 268 452 278 432"></polygon>
            <polygon id="Path-3-Copy-48" fill="#35D2EC" points="287 431 297 443 278 432"></polygon>
            <polygon id="Path-3-Copy-14" fill="#A5CFFF" points="139 419 168 384 185 393"></polygon>
            <polygon id="Path-3-Copy-15" fill="#A4D1FF" points="139 419 185 393 193 407"></polygon>
            <polygon id="Path-3-Copy-23" fill="#8AECFF" points="184 393 203 389 203 400 193 407"></polygon>
            <polygon id="Path-3-Copy-24" fill="#2DBBD4" points="193 407 203 400 205 411"></polygon>
            <polygon id="Path-3-Copy-31" fill="#38E3FC" points="203 400 230 400 226 411 205 411"></polygon>
            <polygon id="Path-3-Copy-80" fill="#5AFFFF" points="203 389 212 390 246 373 256 363 257 385 242 400 203 400"></polygon>
            <polygon id="Path-3-Copy-81" fill="#73FFFF" points="257 385 306 383 256 408 242 400"></polygon>
            <polygon id="Path-3-Copy-82" fill="#3FE8FF" points="306 383 278 421 255 408"></polygon>
            <polygon id="Path-3-Copy-83" fill="#24C6DC" points="306 383 296 421 278 421"></polygon>
            <polygon id="Path-3-Copy-94" fill="#12A4B7" points="345 423 297 443 278 421 304 421"></polygon>
            <polygon id="Path-3-Copy-93" fill="#118EA2" points="345 423 297 513 278 498 285 464 297 443"></polygon>
            <polygon id="Path-3-Copy-86" fill="#33E4FA" points="268 345 306 383 264 355"></polygon>
            <polygon id="Path-3-Copy-89" fill="#1DAFC5" points="359 311 329 379 306 383"></polygon>
            <polygon id="Path-3-Copy-90" fill="#1699AE" points="359 311 345 423 317 408 329 379"></polygon>
            <polygon id="Path-3-Copy-92" fill="#20A7BE" points="317 408 345 423 304 421"></polygon>
            <polygon id="Path-3-Copy-91" fill="#14839A" points="384 301 345 423 359 311"></polygon>
            <polygon id="Path-3-Copy-117" fill="#253E49" points="396 311 367 421 345 423 384 301"></polygon>
            <polygon id="Path-3-Copy-123" fill="#035E71" points="389 226 398 246 396 311 384 301"></polygon>
            <polygon id="Path-3-Copy-87" fill="#42F4FF" points="268 331 306 383 268 345"></polygon>
            <polygon id="Path-3-Copy-85" fill="#3FF7FF" points="256 363 264 355 306 383 257 385"></polygon>
            <polygon id="Path-3-Copy-84" fill="#33D7EF" points="329 379 317 408 304 421 296 421 306 383"></polygon>
            <polygon id="Path-3-Copy-88" fill="#33D7EF" points="313 250 359 311 306 384 254 311"></polygon>
            <polygon id="Path-3-Copy-95" fill="#67FFFF" points="255 246 297 267 254 311"></polygon>
            <polygon id="Path-3-Copy-96" fill="#67FFFF" points="312 250 347 241 359 311"></polygon>
            <polygon id="Path-3-Copy-97" fill="#42EEFF" points="347 241 357 237 359 311"></polygon>
            <polygon id="Path-3-Copy-124" fill="#16A8BC" points="344 227 362 219 357 237"></polygon>
            <polygon id="Path-3-Copy-125" fill="#15859C" points="344 227 357 237 347 241"></polygon>
            <polygon id="Path-3-Copy-127" fill="#19697F" points="344 227 347 241 338 230"></polygon>
            <polygon id="Path-3-Copy-133" fill="#107D91" points="316 230 338 230 316 237"></polygon>
            <polygon id="Path-3-Copy-134" fill="#28CDE3" points="316 230 316 237 302 235"></polygon>
            <polygon id="Path-3-Copy-135" fill="#3AD6F1" points="316 230 302 235 287 229"></polygon>
            <polygon id="Path-3-Copy-136" fill="#12CDDD" points="287 229 270 232 261 224"></polygon>
            <polygon id="Path-3-Copy-128" fill="#03687C" points="338 230 347 241 316 237"></polygon>
            <polygon id="Path-3-Copy-129" fill="#06ACBB" points="302 235 312 250 297 267"></polygon>
            <polygon id="Path-3-Copy-131" fill="#35DEF6" points="270 232 287 229 302 235 297 267 287 262"></polygon>
            <polygon id="Path-3-Copy-130" fill="#3CF1FF" points="255 246 270 232 287 262"></polygon>
            <polygon id="Path-3-Copy-132" fill="#51E8F5" points="255 246 260 223 270 232"></polygon>
            <polygon id="Path-3-Copy-126" fill="#104655" points="302 235 347 241 312 250"></polygon>
            <polygon id="Path-3-Copy-98" fill="#34DEF5" points="357 236 362 219 384 301 359 311"></polygon>
            <polygon id="Path-3-Copy-122" fill="#47E8FF" points="362 219 389 226 384 301"></polygon>
            <polygon id="Path-3-Copy-32" fill="#24C6DB" points="230 400 242 400 249 413 226 411"></polygon>
            <polygon id="Path-3-Copy-35" fill="#32D2EC" points="242 400 278 421 249 413"></polygon>
            <polygon id="Path-3-Copy-34" fill="#11647A" points="226 411 250 413 259 423 219 425"></polygon>
            <polygon id="Path-3-Copy-52" fill="#187C94" points="250 413 278 421 283 426 259 423"></polygon>
            <polygon id="Path-3-Copy-25" fill="#5080BA" points="190 415 193 407 205 411"></polygon>
            <polygon id="Path-3-Copy-29" fill="#285775" points="190 415 205 411 204 425"></polygon>
            <polygon id="Path-3-Copy-30" fill="#08485C" points="205 411 219 425 204 425"></polygon>
            <polygon id="Path-3-Copy-33" fill="#1A7D97" points="205 411 226 411 219 425"></polygon>
            <polygon id="Path-3-Copy-21" fill="#9DBAFF" points="139 419 193 407 190 415 160 426"></polygon>
            <polygon id="Path-3-Copy-20" fill="#958AFF" points="121 417 139 419 160 426 137 428"></polygon>
            <polygon id="Path-3-Copy-26" fill="#7F1294" points="137 428 160 426 150 433 150 438"></polygon>
            <polygon id="Path-3-Copy-28" fill="#4B2174" points="160 426 203 424 162 429 150 438 150 433"></polygon>
            <polygon id="Path-3-Copy-27" fill="#534380" points="160 426 190 415 203 424 176 426"></polygon>
            <polygon id="Path-3-Copy-12" fill="#A6BFFF" points="121 417 161 363 139 419"></polygon>
            <polygon id="Path-3-Copy-3" fill="#91BEFF" points="176 301 141 258 168 250"></polygon>
            <polygon id="Path-4" fill="#34AAC9" points="190 202 204 216 192 215"></polygon>
            <polygon id="Path-4-Copy" fill="#4BDFFF" points="192 215 204 216 200 233"></polygon>
            <polygon id="Path-4-Copy-4" fill="#4AF9FF" points="216 216 225 226 209 232"></polygon>
            <polygon id="Path-4-Copy-11" fill="#7DFFFF" points="224 301 238 329 241 337 203 335"></polygon>
            <polygon id="Path-4-Copy-17" fill="#00A0A1" points="241 337 243 341 228 343 218 353 189 340 195 335 203 335"></polygon>
            <polygon id="Path-4-Copy-18" fill="#AD1FCE" points="189 340 209 361 203 377 182 363 163 350 163 341"></polygon>
            <polygon id="Path-4-Copy-14" fill="#2BE7FB" points="224 301 254 311 262 338 238 329"></polygon>
            <polygon id="Path-4-Copy-5" fill="#50FFFF" points="216 216 234 210 225 226"></polygon>
            <polygon id="Path-4-Copy-6" fill="#0BACBF" points="234 210 264 210 255 246 225 226"></polygon>
            <polygon id="Path-4-Copy-12" fill="#08CCDA" points="225 226 254 311 224 301"></polygon>
            <polygon id="Path-4-Copy-15" fill="#008A99" points="254 311 268 331 268 345 262 338"></polygon>
            <polygon id="Path-4-Copy-19" fill="#125C6D" points="243 341 262 338 268 345"></polygon>
            <polygon id="Path-4-Copy-20" fill="#037080" points="256 350 243 341 268 345"></polygon>
            <polygon id="Path-4-Copy-21" fill="#324859" points="245 351 243 341 256 350"></polygon>
            <polygon id="Path-4-Copy-28" fill="#1A0913" points="234 366 228 357 248 359"></polygon>
            <polygon id="Path-4-Copy-31" fill="#161113" points="218 353 228 357 234 366 218 368 209 361"></polygon>
            <polygon id="Path-4-Copy-32" fill="#48013C" points="209 361 218 368 203 377"></polygon>
            <polygon id="Path-4-Copy-22" fill="#324859" points="239 344 228 343 243 341"></polygon>
            <polygon id="Path-4-Copy-23" fill="#221711" points="245 351 239 344 243 341"></polygon>
            <polygon id="Path-4-Copy-26" fill="#272325" points="245 351 232 353 228 346 239 344"></polygon>
            <polygon id="Path-4-Copy-27" fill="#2E1D1F" points="232 353 228 357 218 353 228 346"></polygon>
            <polygon id="Path-4-Copy-29" fill="#040000" points="212 390 203 389 203 377 218 368 234 366 254 356 256 350 268 345 264 355 246 373 235 378"></polygon>
            <polygon id="Path-4-Copy-24" fill="#0E1311" points="239 344 228 346 218 353 228 343"></polygon>
            <polygon id="Path-4-Copy-25" fill="#030000" points="245 351 248 359 228 357 232 353"></polygon>
            <polygon id="Path-4-Copy-30" fill="#47134F" points="256 350 254 356 248 359 245 351"></polygon>
            <polygon id="Path-4-Copy-16" fill="#2ECBE3" points="238 329 262 338 243 341 241 337"></polygon>
            <polygon id="Path-4-Copy-13" fill="#28D2E6" points="225 226 255 246 254 311"></polygon>
            <polygon id="Path-4-Copy-3" fill="#1FC4D7" points="216 216 227 202 234 210"></polygon>
            <polygon id="Path-4-Copy-2" fill="#90AFFF" points="160 220 192 215 197 241"></polygon>
            <polygon id="Path-4-Copy-7" fill="#ADACFF" points="168 250 197 241 199 293"></polygon>
            <polygon id="Path-4-Copy-9" fill="#6EDEFF" points="197 241 192 215 200 233"></polygon>
            <polygon id="Path-4-Copy-10" fill="#9BCCFF" points="199 291 197 241 200 233"></polygon>
            <polygon id="Path-4-Copy-8" fill="#BCB7FF" points="176 301 199 291 195 335 183 345 163 341 166 327"></polygon>
            <polygon id="Path-5" fill="#5FFFFF" points="227 203 190 202 204 216 200 233 209 232 216 216"></polygon>
            <polygon id="Path-5-Copy" fill="#6BFFFF" points="209 232 200 233 199 292 203 335 224 301 225 226"></polygon>
            <polygon id="Path-6" fill="#18B1C4" points="94 234 110 218 113 234"></polygon>
            <polygon id="Path-7" fill="#A1E6FF" points="199 291 203 335 195 335"></polygon>
            <polygon id="Path-7-Copy" fill="#770C7A" points="189 340 218 353 209 361"></polygon>
            <polygon id="Path-7-Copy-2" fill="#770C7A" points="182 363 184 393 168 384"></polygon>
            <polygon id="Path-7-Copy-4" fill="#330033" points="182 363 203 377 184 393"></polygon>
            <polygon id="Path-7-Copy-5" fill="#58004E" points="184 393 203 377 203 389"></polygon>
            <polygon id="Path-7-Copy-3" fill="#43023A" points="163 350 182 363 168 384 161 363"></polygon>
            <polygon id="Path-8" fill="#000000" points="176 354 193 354 193 368"></polygon>
            <polygon id="Path-9" fill="#000000" points="150 438 162 429 203 424 204 425 219 425 259 423 283 426 291 429 287 431 267 429 237 431 219 436 189 433 160 435"></polygon>
            <polygon id="Path-10" fill="#01000B" points="415 179 415 188 407 191 398 214 405 185"></polygon>
            <polygon id="Path-10-Copy" fill="#0A2B33" points="399 217 398 214 407 191"></polygon>
            <polygon id="Path-10-Copy-2" fill="#1D3C3C" points="398 244 400 224 399 217 398 214"></polygon>
            <polygon id="Path-11" fill="#000000" points="362 219 339 230 316 230 287 229 260 224 295 224 310 226 328 226 351 223"></polygon>
            <polygon id="Path-12" fill="#199AB0" points="407 233 434 254 434 226 411 227"></polygon>
            <polygon id="Path-12-Copy-16" fill="#199AB0" points="412 313 412 345 418 312 426 286 413 301"></polygon>
            <polygon id="Path-12-Copy-17" fill="#0F8599" points="396 311 386 347 412 311 414 301 404 316"></polygon>
            <polygon id="Path-12-Copy-9" fill="#3FE4FF" points="403 244 434 254 407 233"></polygon>
            <polygon id="Path-12-Copy-27" fill="#2ABED6" points="414 301 418 295 409 283 402 286"></polygon>
            <polygon id="Path-12-Copy-18" fill="#4FFFFF" points="404 316 414 301 409 294 400 299"></polygon>
            <polygon id="Path-12-Copy-28" fill="#17B2C6" points="396 311 404 316 400 299 396 295"></polygon>
            <polygon id="Path-12-Copy-19" fill="#50FBFF" points="418 295 426 286 433 261 420 279 413 288"></polygon>
            <polygon id="Path-12-Copy-14" fill="#1EB2C9" points="403 356 412 345 398 343 386 348"></polygon>
            <polygon id="Path-12-Copy-15" fill="#16CADA" points="398 343 412 345 412 311 386 348"></polygon>
            <polygon id="Path-12-Copy-10" fill="#33A7C5" points="404 252 434 254 403 244"></polygon>
            <polygon id="Path-12-Copy" fill="#00495A" points="411 227 434 226 425 218 413 218"></polygon>
            <polygon id="Path-12-Copy-12" fill="#006E7C" points="398 245 412 227 413 218 400 224"></polygon>
            <polygon id="Path-12-Copy-34" fill="#27738E" points="396 295 400 299 409 294 402 286 406 277 404 252 403 244 407 233 398 244"></polygon>
            <polygon id="Path-12-Copy-2" fill="#25ACC3" points="434 226 434 210 429 203 425 218"></polygon>
            <polygon id="Path-12-Copy-3" fill="#02C3CD" points="425 218 429 203 418 206"></polygon>
            <polygon id="Path-12-Copy-5" fill="#000000" points="418 206 429 203 424 196"></polygon>
            <polygon id="Path-12-Copy-13" fill="#000000" points="384 356 403 356 386 348"></polygon>
            <polygon id="Path-12-Copy-11" fill="#000000" points="404 261 419 253 404 252"></polygon>
            <polygon id="Path-12-Copy-23" fill="#000000" points="402 286 409 283 405 277"></polygon>
            <polygon id="Path-12-Copy-20" fill="#448CAA" points="404 269 419 253 404 260"></polygon>
            <polygon id="Path-12-Copy-22" fill="#2F4D58" points="434 254 419 253 404 269"></polygon>
            <polygon id="Path-12-Copy-21" fill="#023140" points="405 277 434 254 404 269"></polygon>
            <polygon id="Path-12-Copy-29" fill="#023140" points="425 290 432 263 434 254 438 240 435 265"></polygon>
            <polygon id="Path-12-Copy-33" fill="#2FC7E0" points="412 345 418 312 426 286 421 312"></polygon>
            <polygon id="Path-12-Copy-24" fill="#18708A" points="409 283 434 254 405 277"></polygon>
            <polygon id="Path-12-Copy-25" fill="#1799AF" points="413 288 434 254 409 283"></polygon>
            <polygon id="Path-12-Copy-30" fill="#027286" points="438 241 434 210 434 254"></polygon>
            <polygon id="Path-12-Copy-31" fill="#22CADE" points="440 257 438 241 435 263 428 284"></polygon>
            <polygon id="Path-12-Copy-32" fill="#35FFFF" points="426 287 440 257 421 312"></polygon>
            <polygon id="Path-12-Copy-26" fill="#157F97" points="413 288 432 263 434 254"></polygon>
            <polygon id="Path-12-Copy-6" fill="#000000" points="434 210 431 200 424 196"></polygon>
            <polygon id="Path-12-Copy-8" fill="#0393A3" points="435 200 429 188 424 196"></polygon>
            <polygon id="Path-12-Copy-7" fill="#9C05B6" points="440 257 441 222 439 208 435 200 424 196 431 201 434 210"></polygon>
            <polygon id="Path-12-Copy-4" fill="#35C4DF" points="413 218 425 218 418 206"></polygon>
            <polygon id="Path-Copy-15" fill="#37E3FC" points="190 202 227 203 257 164"></polygon>
            <polygon id="Path-Copy-14" fill="#40E9FF" points="190 202 258 164 145 164"></polygon>
            <polygon id="Path-Copy-2" fill="#44F7FF" points="227 104 258 164 290 97"></polygon>
            <polygon id="Path-Copy" fill="#2AD0E6" points="142 164 259 164 227 104"></polygon>
            <polygon id="Path" fill="#40F0FF" points="119 104 143 164 227 104"></polygon>
        </g>
        <circle id="Oval" fill="#FFFFFF" style="mix-blend-mode: overlay;" filter="url(#filter-2)" cx="307" cy="410" r="88"></circle>
        <path d="M624,137.205285 C574.509283,91.7491553 508.495223,64 436,64 C282.46484,64 158,188.46484 158,342 C158,495.53516 282.46484,620 436,620 C508.495223,620 574.509283,592.250845 624,546.794715 L624,800 L-447,800 L-447,-287 L624,-287 L624,137.205285 Z" id="Combined-Shape" fill="#282E35" filter="url(#filter-3)"></path>
    </g>
</svg>