<?xml version="1.0" encoding="UTF-8"?>
<svg width="903px" height="567px" viewBox="0 0 903 567" version="1.1" xmlns="http://www.w3.org/2000/svg" xmlns:xlink="http://www.w3.org/1999/xlink">
    <!-- Generator: Sketch 61.1 (89650) - https://sketch.com -->
    <title>Artboard</title>
    <desc>Created with Sketch.</desc>
    <defs>
        <filter x="-18.3%" y="-18.3%" width="136.6%" height="136.6%" filterUnits="objectBoundingBox" id="filter-1">
            <feGaussianBlur stdDeviation="20" in="SourceGraphic"></feGaussianBlur>
        </filter>
        <filter x="-52.8%" y="-52.8%" width="205.7%" height="205.7%" filterUnits="objectBoundingBox" id="filter-2">
            <feGaussianBlur stdDeviation="31" in="SourceGraphic"></feGaussianBlur>
        </filter>
        <radialGradient cx="66.5090212%" cy="57.6480263%" fx="66.5090212%" fy="57.6480263%" r="24.5823564%" gradientTransform="translate(0.665090,0.576480),scale(1.000000,0.704475),rotate(179.282127),scale(1.000000,1.365020),translate(-0.665090,-0.576480)" id="radialGradient-3">
            <stop stop-color="#2C3239" stop-opacity="0" offset="0%"></stop>
            <stop stop-color="#2C3239" stop-opacity="0" offset="0.361034498%"></stop>
            <stop stop-color="#2B3138" stop-opacity="0" offset="33.4870398%"></stop>
            <stop stop-color="#282E35" offset="100%"></stop>
            <stop stop-color="#282E35" offset="100%"></stop>
            <stop stop-color="#282E35" offset="100%"></stop>
        </radialGradient>
    </defs>
    <g id="Artboard" stroke="none" stroke-width="1" fill="none" fill-rule="evenodd">
        <rect fill="#282E35" x="0" y="0" width="903" height="567"></rect>
        <circle id="Oval" fill="#D455FF" fill-rule="nonzero" style="mix-blend-mode: overlay;" filter="url(#filter-1)" cx="631" cy="387" r="164"></circle>
        <g id="Group" transform="translate(330.000000, -35.000000)" fill-rule="nonzero" stroke="#282E35" stroke-width="0.5">
            <polygon id="Path-Copy-5" fill="#4FB4DF" points="75 142.133333 147 169 122.314286 107"></polygon>
            <polygon id="Path-Copy-7" fill="#8CDCFF" points="75 142 122 107.163934 110.76087 17"></polygon>
            <polygon id="Path-Copy-72" fill="#49FFFF" points="306 23.5 350 131 325.44186 2"></polygon>
            <polygon id="Path-Copy-77" fill="#44EFFF" points="349.842105 130.496503 369.508772 149 384 149 325 2"></polygon>
            <polygon id="Path-Copy-78" fill="#36D5EE" points="383.302326 149 414 139.748252 326 2"></polygon>
            <polygon id="Path-Copy-79" fill="#2CB9D3" points="414 140 385.348837 49.3731343 326 2"></polygon>
            <polygon id="Path-Copy-73" fill="#73FFFF" points="298 100.134615 350 131 306.156863 24"></polygon>
            <polygon id="Path-Copy-74" fill="#89FFFF" points="233 24 297.774648 100 306 24"></polygon>
            <polygon id="Path-Copy-76" fill="#89FFFF" points="111 17 122.277311 107 233 107 233 24.1590909"></polygon>
            <polygon id="Path-Copy-75" fill="#9AFAFB" points="233 107 298 99.8271605 233 24"></polygon>
            <polygon id="Path-Copy-8" fill="#ACC0FF" points="75.0909091 141.365854 111 16.3902439 75.0909091 0 32 99.3658537 43.2857143 168"></polygon>
            <polygon id="Path-Copy-6" fill="#617DC6" points="89.4 204 147 168.866667 75 142"></polygon>
            <polygon id="Path-Copy-11" fill="#232D43" points="122.142857 194.764706 147 168 89 203"></polygon>
            <polygon id="Path-Copy-12" fill="#514986" points="195 207 147.704225 167 122 194.692308"></polygon>
            <polygon id="Path-Copy-13" fill="#3A083A" points="195 207.4 122 195 164.15493 226"></polygon>
            <polygon id="Path-Copy-9" fill="#7569CC" points="89 204 74.6888889 142 43 168.866667"></polygon>
            <polygon id="Path-Copy-10" fill="#7863CA" points="89 203.73913 43 169 72.6444444 216"></polygon>
            <polygon id="Path-Copy-29" fill="#AA12C0" points="46 226 43 168 35 226"></polygon>
            <polygon id="Path-Copy-69" fill="#210018" points="21 232 10 210 7 215.238095"></polygon>
            <polygon id="Path-Copy-71" fill="#0F000C" points="7 216 10 211 0 212"></polygon>
            <polygon id="Path-Copy-70" fill="#600667" points="31 269 21.7 231.714286 7.23333333 215.142857 0 211 15.5 243.107143"></polygon>
            <polygon id="Path-Copy-32" fill="#B174FF" points="45 226 35 226 31 270"></polygon>
            <polygon id="Path-Copy-33" fill="#A177FC" points="57 243.395349 45.56 226 31 270"></polygon>
            <polygon id="Path-Copy-35" fill="#B79FFF" points="43.48 305 57 243 31 268.833333"></polygon>
            <polygon id="Path-Copy-36" fill="#ACCBFF" points="58 313 56 243 43 304.764706"></polygon>
            <polygon id="Path-Copy-37" fill="#95B8FF" points="91 328 56 244 58.0588235 313.658537"></polygon>
            <polygon id="Path-Copy-38" fill="#9FB8FF" points="94 263.463415 78.5945946 261.414634 56 244 90.9189189 328"></polygon>
            <polygon id="Path-Copy-39" fill="#40DFFD" points="181 309.428571 145.195402 265.063492 105.298851 263 95.0689655 263 92 328"></polygon>
            <polygon id="Path-Copy-34" fill="#8BAAFF" points="61 237 45 226 56 243"></polygon>
            <polygon id="Path-Copy-45" fill="#B8B6FF" points="62 237 57 243 65 239"></polygon>
            <polygon id="Path-Copy-60" fill="#92A0FA" points="65 239 57 243 71 244"></polygon>
            <polygon id="Path-Copy-61" fill="#6E0087" points="73 240 65 239 71 244"></polygon>
            <polygon id="Path-Copy-62" fill="#800591" points="86 240 73 240 71 244 84 245"></polygon>
            <polygon id="Path-Copy-46" fill="#930DA3" points="56 244 78.7586207 261 86 246"></polygon>
            <polygon id="Path-Copy-47" fill="#700C75" points="86.2916667 240 79 261 104 246.3"></polygon>
            <polygon id="Path-Copy-48" fill="#663C96" points="79 261 94.625 263 104 247"></polygon>
            <polygon id="Path-Copy-49" fill="#7E3795" points="95 263 105 263 108 251"></polygon>
            <polygon id="Path-Copy-51" fill="#07292D" points="105 263 139 259 126.636364 251 108.090909 251"></polygon>
            <polygon id="Path-Copy-52" fill="#0199A9" points="138.375 259 159 238 126 250.6"></polygon>
            <polygon id="Path-Copy-55" fill="#2CD9EE" points="173 256.692308 159.518519 238 145 265"></polygon>
            <polygon id="Path-Copy-56" fill="#36B4D0" points="144.3 265 159 238 138 258.769231"></polygon>
            <polygon id="Path-Copy-57" fill="#2C9CB8" points="138.846154 259 145 265 105 263"></polygon>
            <polygon id="Path-Copy-54" fill="#40E2FC" points="126 251 159 239 141.46875 239"></polygon>
            <polygon id="Path-Copy-58" fill="#40E2FC" points="129 238 158 236 152.821429 230"></polygon>
            <polygon id="Path-Copy-59" fill="#04192D" points="129.183099 238 86 240 103.478873 246 141.521127 238 159 238 157.971831 236"></polygon>
            <polygon id="Path-Copy-53" fill="#189EB3" points="126.594595 251 142 239 104 247 108.108108 251"></polygon>
            <polygon id="Path-Copy-50" fill="#773191" points="95 263 108 251 104 247"></polygon>
            <polygon id="Path-Copy-30" fill="#C933E9" points="43 168.893617 10 140 33.71875 237"></polygon>
            <polygon id="Path-Copy-68" fill="#CC43F3" points="10.1724138 140 5 164.580645 10.1724138 210.669355 21.5517241 232.177419 30.862069 267 35 234.225806"></polygon>
            <polygon id="Path-Copy-31" fill="#C951FE" points="31.65625 100 10 140.164179 43 169"></polygon>
            <polygon id="Path-Copy-3" fill="#3BE7FF" points="298.066667 100 265 169 327 149.432836"></polygon>
            <polygon id="Path-Copy-4" fill="#41F1FF" points="298 100 326.54902 149 350 130.625"></polygon>
            <polygon id="Path-Copy-16" fill="#2BC4DB" points="327 149 370 149 350.547619 131"></polygon>
            <polygon id="Path-Copy-17" fill="#22A0B8" points="340.309524 191 370 149 327 149"></polygon>
            <polygon id="Path-Copy-23" fill="#148FA3" points="340 190.97619 326.666667 149 322.140702 156.298119 300 192"></polygon>
            <polygon id="Path-Copy-24" fill="#0A5C71" points="294.966667 182 327 149 265 168.59375"></polygon>
            <polygon id="Path-Copy-26" fill="#139FB2" points="240.225806 216 265 169 233 207.826087"></polygon>
            <polygon id="Path-Copy-27" fill="#177C94" points="295 182.282609 265.45283 169 241 216"></polygon>
            <polygon id="Path-Copy-28" fill="#1C3D4C" points="295 182 241 216 271.566038 216"></polygon>
            <polygon id="Path-Copy-25" fill="#4FA9B6" points="299.527273 192.272727 326 149 294.436364 181.969697 270 217"></polygon>
            <polygon id="Path-Copy-63" fill="#13CFDF" points="303 230 288.588235 201 270.058824 216.535714 268 230"></polygon>
            <polygon id="Path-Copy-64" fill="#40E3FF" points="318 232 300.392857 192 289 201.230769 303.5 229.948718"></polygon>
            <polygon id="Path-Copy-65" fill="#5DFFFF" points="336.923077 232 340 191 300 192.025 317.435897 232"></polygon>
            <polygon id="Path-Copy-66" fill="#2CCCE3" points="360.793103 228.925 367 211.5 340.103448 191 337 232"></polygon>
            <polygon id="Path-Copy-67" fill="#1AB0C3" points="372 225 373 215 366 211 361 229"></polygon>
            <polygon id="Path-Copy-18" fill="#188098" points="365.862069 211 370 149 340 191.366667"></polygon>
            <polygon id="Path-Copy-19" fill="#168CA2" points="383 168.633333 370 149 366 211"></polygon>
            <polygon id="Path-Copy-22" fill="#20AEC3" points="384 149 370 149 383 169"></polygon>
            <polygon id="Path-Copy-20" fill="#175168" points="395 189.444444 383.607143 169 366 210.911111 373.25 215"></polygon>
            <polygon id="Path-Copy-40" fill="#0B8094" points="398 207.514286 394.88 189 373.04 214.714286 372 225"></polygon>
            <polygon id="Path-Copy-41" fill="#21B7CD" points="400 232 397.925926 207 372 224.708333"></polygon>
            <polygon id="Path-Copy-21" fill="#1B829B" points="414 140 384.033333 149.1875 383 168.583333 394.366667 189"></polygon>
            <polygon id="Path-Copy-42" fill="#177089" points="414 140 394 189.230769 397.157895 207.692308 408.736842 220"></polygon>
            <polygon id="Path-Copy-44" fill="#195164" points="414 140 410 189.230769 409 220 416 190.25641 426 184.102564"></polygon>
            <polygon id="Path-Copy-43" fill="#1D88A1" points="409 220.272727 398 208 400 232.545455 409 253"></polygon>
            <polygon id="Path-Copy-109" fill="#4CF5FF" points="418.266667 196.083333 410 221.777778 411.033333 230 423.433333 207.388889 441 193 426.533333 193"></polygon>
            <polygon id="Path-Copy-110" fill="#55FDFF" points="419.275862 204.305556 411 230 424.448276 223.833333 429.62069 211.5 441 193"></polygon>
            <polygon id="Path-2" fill="#3FECFF" points="89 203.190476 129.068493 238 164 225.714286 121.876712 195"></polygon>
            <polygon id="Path-2-Copy" fill="#6DC7FF" points="86 240 96.3846154 240 113 223.555556 89.1153846 203"></polygon>
            <polygon id="Path-2-Copy-3" fill="#A9A0FF" points="73 215.333333 73 240 86 240 89 203"></polygon>
            <polygon id="Path-2-Copy-4" fill="#B861FF" points="59 235.791667 65 239.958333 73 241 73 216"></polygon>
            <polygon id="Path-2-Copy-5" fill="#9B00A0" points="45.0689655 225.723077 58.5172414 235 73 215.415385 43 168"></polygon>
            <polygon id="Path-2-Copy-2" fill="#2DD7EC" points="116 240 122 240 129 238 113 224"></polygon>
            <polygon id="Path-3" fill="#8677E5" points="164 226 194.9375 208 197 221"></polygon>
            <polygon id="Path-3-Copy" fill="#8F5CDF" points="172.216216 257 164 226 202 247.7"></polygon>
            <polygon id="Path-3-Copy-22" fill="#22BACF" points="173 257 153 230.133333 164.578947 226"></polygon>
            <polygon id="Path-3-Copy-2" fill="#C474FF" points="180.258065 309 172 257 204 299.823529"></polygon>
            <polygon id="Path-3-Copy-4" fill="#48E8FF" points="155 322.5 181 309 170.6 336"></polygon>
            <polygon id="Path-3-Copy-7" fill="#30D3EB" points="92 327 181 309 155.425287 322"></polygon>
            <polygon id="Path-3-Copy-8" fill="#27CBE1" points="91 327.227273 155 322 155 345"></polygon>
            <polygon id="Path-3-Copy-9" fill="#1AB6CA" points="91 328 155 345.520408 124.032258 429"></polygon>
            <polygon id="Path-3-Copy-13" fill="#9259D7" points="43 305 91.1898734 327.55 124 428"></polygon>
            <polygon id="Path-3-Copy-16" fill="#887BE7" points="43 305 124.174312 428.030303 155 508"></polygon>
            <polygon id="Path-3-Copy-36" fill="#A016B4" points="43 305 155 508 129.311927 508"></polygon>
            <polygon id="Path-3-Copy-37" fill="#C130E5" points="43 305 129 508 94.1904762 468.015152 65.5238095 421.878788"></polygon>
            <polygon id="Path-3-Copy-38" fill="#CC42F3" points="31 313.210526 43.3529412 305 66 422"></polygon>
            <polygon id="Path-3-Copy-137" fill="#9226B2" points="30.5555556 313 15 242 30.5555556 268.753623 43 304.768116"></polygon>
            <polygon id="Path-3-Copy-5" fill="#63B0EB" points="155 345 155 322 170 335.590909"></polygon>
            <polygon id="Path-3-Copy-6" fill="#84C3FF" points="167 350 155 345 170 336"></polygon>
            <polygon id="Path-3-Copy-10" fill="#88B5FF" points="124 428 154.714286 345 167 350.123457 167 359.345679 164.952381 372.666667"></polygon>
            <polygon id="Path-3-Copy-11" fill="#51CFF7" points="143 431 165.758621 373 173 394.75"></polygon>
            <polygon id="Path-3-Copy-17" fill="#A03FD0" points="180 544.853659 171.836735 551 130 509 155.510204 509"></polygon>
            <polygon id="Path-3-Copy-100" fill="#7C0085" points="170 601 124 601 129.111111 509 162.844444 542.733333"></polygon>
            <polygon id="Path-3-Copy-120" fill="#92009F" points="125.84 601 104 601 111.28 487 130 508.567568"></polygon>
            <polygon id="Path-3-Copy-121" fill="#B823D4" points="104 601 99 601 102 476 111 487.270492"></polygon>
            <polygon id="Path-3-Copy-119" fill="#BF2FDB" points="124 601 114 601 129 509"></polygon>
            <polygon id="Path-3-Copy-101" fill="#27001F" points="170 601 163 542 171 550.280702"></polygon>
            <polygon id="Path-3-Copy-102" fill="#240028" points="171 601 172 551 180 554.061224"></polygon>
            <polygon id="Path-3-Copy-105" fill="#170609" points="192 601 194 577 209 601"></polygon>
            <polygon id="Path-3-Copy-106" fill="#3A0033" points="194.451613 578 180 554 212 565.478261"></polygon>
            <polygon id="Path-3-Copy-107" fill="#170511" points="219 567 194 577 211.708333 565"></polygon>
            <polygon id="Path-3-Copy-108" fill="#260C22" points="220 601 208.56 601 194 577.30303 218.96 567"></polygon>
            <polygon id="Path-3-Copy-109" fill="#010000" points="248 601 220.035714 601 219 567.057143 244.892857 565"></polygon>
            <polygon id="Path-3-Copy-110" fill="#0F0306" points="296 601 248.06 601 245 565.222222 275.6 555"></polygon>
            <polygon id="Path-3-Copy-111" fill="#060000" points="296 601 275 554.421053 290.75 542"></polygon>
            <polygon id="Path-3-Copy-112" fill="#060000" points="296.147059 601 291 542.180851 305.411765 526.702128 326 504 319.823529 561.787234"></polygon>
            <polygon id="Path-3-Copy-113" fill="#1E0F10" points="320 562 326.15 505.263158 356.9 464 361 508.357895"></polygon>
            <polygon id="Path-3-Copy-114" fill="#231B20" points="305 527 354.371429 434.065217 377 432 357.457143 464.01087 325.571429 505.315217"></polygon>
            <polygon id="Path-3-Copy-115" fill="#1B89A0" points="351 521.266667 361 509 369 601 363 601"></polygon>
            <polygon id="Path-3-Copy-116" fill="#31D4EC" points="319.707692 562.012987 350.630769 522 363 601 296 601"></polygon>
            <polygon id="Path-3-Copy-104" fill="#300E2C" points="170 601 178.347826 559 194 577.439024 191.913043 601"></polygon>
            <polygon id="Path-3-Copy-99" fill="#8E1BA6" points="201 562 171 551 179.275862 545"></polygon>
            <polygon id="Path-3-Copy-103" fill="#86007E" points="194 578 171 551 179.363636 554.115385"></polygon>
            <polygon id="Path-3-Copy-18" fill="#608CCF" points="155 509 141 440 154 450.298507"></polygon>
            <polygon id="Path-3-Copy-118" fill="#A143D4" points="155 508 124 428 140.533333 439.282051"></polygon>
            <polygon id="Path-3-Copy-19" fill="#A75CE8" points="155 509 154 450 165 472.77193"></polygon>
            <polygon id="Path-3-Copy-64" fill="#62EFFF" points="200.322581 512 190 504 222 496"></polygon>
            <polygon id="Path-3-Copy-39" fill="#9A8CFF" points="165.354839 473 154 450.12 164.322581 447 186 473"></polygon>
            <polygon id="Path-3-Copy-53" fill="#825EC7" points="155 509 165.333333 473 186 473 170.5 483.285714"></polygon>
            <polygon id="Path-3-Copy-55" fill="#654B9D" points="172.395349 498.615385 155 509 170.348837 483.038462 199 482 189.790698 504.846154"></polygon>
            <polygon id="Path-3-Copy-40" fill="#8DB8FF" points="185.724138 473 164 447 180.551724 449.08 194 453.24"></polygon>
            <polygon id="Path-3-Copy-41" fill="#3AB8D7" points="203 473 186 473 194 453 203 455.105263"></polygon>
            <polygon id="Path-3-Copy-54" fill="#540D4C" points="198.875 482 170 483 185.46875 473 203 473"></polygon>
            <polygon id="Path-3-Copy-42" fill="#2CDBEF" points="232 470 203 472 203 455"></polygon>
            <polygon id="Path-3-Copy-56" fill="#1C3446" points="222 496.636364 190 505 199.290323 482"></polygon>
            <polygon id="Path-3-Copy-65" fill="#517CB8" points="190 504.272727 163 521 172.346154 498"></polygon>
            <polygon id="Path-3-Copy-68" fill="#75C3FF" points="200 512.235294 197 539 190 504"></polygon>
            <polygon id="Path-3-Copy-67" fill="#8C72E8" points="172 498 163 521 155 508.454545"></polygon>
            <polygon id="Path-3-Copy-66" fill="#9293FF" points="189.787879 504 197 538.871795 179.484848 544 163 520.410256"></polygon>
            <polygon id="Path-3-Copy-78" fill="#561354" points="197.447368 539 219 553.636364 201.552632 562 180 544.227273"></polygon>
            <polygon id="Path-3-Copy-63" fill="#30D3EB" points="222 496 218.875 554 197 539.5 200.125 512.571429"></polygon>
            <polygon id="Path-3-Copy-69" fill="#41E6FF" points="222.157895 496 239 525 239 542.607143 219 554"></polygon>
            <polygon id="Path-3-Copy-70" fill="#55FFFF" points="221 496 251.952381 498.071429 286 511.535714 272.587302 523.964286 238.539683 525"></polygon>
            <polygon id="Path-3-Copy-57" fill="#1F1516" points="234 489 203.117647 485 199 482 203.117647 473 231.941176 471"></polygon>
            <polygon id="Path-3-Copy-60" fill="#1A859E" points="227.8 496 221.6 496 203 485 234 489"></polygon>
            <polygon id="Path-3-Copy-71" fill="#1A859E" points="247.272727 539 238 525 272 524"></polygon>
            <polygon id="Path-3-Copy-77" fill="#251917" points="219 567 202 562 219 554"></polygon>
            <polygon id="Path-3-Copy-73" fill="#3AE1FC" points="260.541667 549 247 539.625 272 524"></polygon>
            <polygon id="Path-3-Copy-74" fill="#078E9F" points="261 549 241.536585 553 219 554 238.463415 543 247.682927 540"></polygon>
            <polygon id="Path-3-Copy-75" fill="#0D546A" points="291 542.6 275.482759 555 261 548.8 272.37931 524"></polygon>
            <polygon id="Path-3-Copy-79" fill="#0B90A1" points="305 527.5 290.5625 543 272 524.4 285.40625 512"></polygon>
            <polygon id="Path-3-Copy-76" fill="#262123" points="275 555 244.454545 565 219 567 219 554 260.745455 549"></polygon>
            <polygon id="Path-3-Copy-72" fill="#30D9F0" points="247 539 238 542 238 525"></polygon>
            <polygon id="Path-3-Copy-43" fill="#37DEF7" points="262 465 232 470 249.586207 453"></polygon>
            <polygon id="Path-3-Copy-58" fill="#1C3037" points="262 465 234.068966 489 232 470.217391"></polygon>
            <polygon id="Path-3-Copy-59" fill="#18778F" points="262 465 251.69697 498 228 495.9375 234.181818 488.71875"></polygon>
            <polygon id="Path-3-Copy-44" fill="#46FFFF" points="232.622222 470 204 455 250 453"></polygon>
            <polygon id="Path-3-Copy-45" fill="#46F1FF" points="262 465 250 453 267 448"></polygon>
            <polygon id="Path-3-Copy-62" fill="#22BCD2" points="285.825 512 252 498.617647 293 477"></polygon>
            <polygon id="Path-3-Copy-46" fill="#32D8EF" points="286 444 275.565217 464.952381 262 466 267.217391 448.190476"></polygon>
            <polygon id="Path-3-Copy-61" fill="#1F4755" points="275.575 464 293 476.363636 252 498 262.25 465.030303"></polygon>
            <polygon id="Path-3-Copy-49" fill="#69FFFF" points="295 443 267.46 448 244 443 274.6 441"></polygon>
            <polygon id="Path-3-Copy-50" fill="#5DFFFF" points="267 448 249.595238 453 224 448 243.452381 443"></polygon>
            <polygon id="Path-3-Copy-51" fill="#61FFFF" points="249 453 202.915663 455 193.698795 453 164 447 193.698795 445 225.445783 448"></polygon>
            <polygon id="Path-3-Copy-47" fill="#21AEC4" points="305 455.34375 292.586207 477 275 464.625 285.344828 444"></polygon>
            <polygon id="Path-3-Copy-48" fill="#35D2EC" points="294.473684 443 305 455 285 444"></polygon>
            <polygon id="Path-3-Copy-14" fill="#A5CFFF" points="143 430 172.630435 394 190 403.257143"></polygon>
            <polygon id="Path-3-Copy-15" fill="#A4D1FF" points="143 431 189.851852 404 198 418.538462"></polygon>
            <polygon id="Path-3-Copy-23" fill="#8AECFF" points="189 404 209 400 209 411 198.473684 418"></polygon>
            <polygon id="Path-3-Copy-24" fill="#2DBBD4" points="198 418 208 411 210 422"></polygon>
            <polygon id="Path-3-Copy-31" fill="#38E3FC" points="208 411 236 411 231.851852 422 210.074074 422"></polygon>
            <polygon id="Path-3-Copy-80" fill="#5AFFFF" points="209 399.702703 218.166667 400.72973 252.796296 383.27027 262.981481 373 264 395.594595 248.722222 411 209 411"></polygon>
            <polygon id="Path-3-Copy-81" fill="#73FFFF" points="263.46875 395.08 314 393 262.4375 419 248 410.68"></polygon>
            <polygon id="Path-3-Copy-82" fill="#3FE8FF" points="314 393 285.45098 432 262 418.657895"></polygon>
            <polygon id="Path-3-Copy-83" fill="#24C6DC" points="314 393 303.642857 432 285 432"></polygon>
            <polygon id="Path-3-Copy-94" fill="#12A4B7" points="354 434.090909 304.567164 455 285 432 311.776119 432"></polygon>
            <polygon id="Path-3-Copy-93" fill="#118EA2" points="354 435 304.567164 527 285 511.666667 292.208955 476.911111 304.567164 455.444444"></polygon>
            <polygon id="Path-3-Copy-86" fill="#33E4FA" points="275.095238 354 314 393 271 364.263158"></polygon>
            <polygon id="Path-3-Copy-89" fill="#1DAFC5" points="369 319 338.433962 388.888889 315 393"></polygon>
            <polygon id="Path-3-Copy-90" fill="#1699AE" points="369 320 354.666667 435 326 419.598214 338.285714 389.821429"></polygon>
            <polygon id="Path-3-Copy-92" fill="#20A7BE" points="325.317073 419 354 434 312 432"></polygon>
            <polygon id="Path-3-Copy-91" fill="#14839A" points="394 309 354 434 368.358974 319.245902"></polygon>
            <polygon id="Path-3-Copy-117" fill="#253E49" points="407 319.245902 377.431373 431.95082 355 434 394.764706 309"></polygon>
            <polygon id="Path-3-Copy-123" fill="#035E71" points="400 232 409 252.470588 407 319 395 308.764706"></polygon>
            <polygon id="Path-3-Copy-87" fill="#42F4FF" points="275 340 314 393 275 354.269231"></polygon>
            <polygon id="Path-3-Copy-85" fill="#3FF7FF" points="263 373.266667 271.16 365 314 393.933333 264.02 396"></polygon>
            <polygon id="Path-3-Copy-84" fill="#33D7EF" points="338 389 325.636364 418.690476 312.242424 432 304 432 314.30303 393.095238"></polygon>
            <polygon id="Path-3-Copy-88" fill="#33D7EF" points="321.685714 257 369 319.820896 314.485714 395 261 319.820896"></polygon>
            <polygon id="Path-3-Copy-95" fill="#67FFFF" points="262.023256 253 305 274.646154 261 320"></polygon>
            <polygon id="Path-3-Copy-96" fill="#67FFFF" points="321 257.257143 356.744681 248 369 320"></polygon>
            <polygon id="Path-3-Copy-97" fill="#42EEFF" points="357 247.108108 367 243 369 319"></polygon>
            <polygon id="Path-3-Copy-124" fill="#16A8BC" points="354 233 372 225 367 243"></polygon>
            <polygon id="Path-3-Copy-125" fill="#15859C" points="354 233 367 243 357 247"></polygon>
            <polygon id="Path-3-Copy-127" fill="#19697F" points="353 233 356 247 347 236"></polygon>
            <polygon id="Path-3-Copy-133" fill="#107D91" points="324 236 347 236 324 243"></polygon>
            <polygon id="Path-3-Copy-134" fill="#28CDE3" points="324 236 324 243 310 241"></polygon>
            <polygon id="Path-3-Copy-135" fill="#3AD6F1" points="325 236 310.517241 241 295 235"></polygon>
            <polygon id="Path-3-Copy-136" fill="#12CDDD" points="295 235 277.346154 238 268 230"></polygon>
            <polygon id="Path-3-Copy-128" fill="#03687C" points="347.709677 236 357 247 325 243"></polygon>
            <polygon id="Path-3-Copy-129" fill="#06ACBB" points="310 241 320 256.46875 305 274"></polygon>
            <polygon id="Path-3-Copy-131" fill="#35DEF6" points="277 238.078947 294.53125 235 310 241.157895 304.84375 274 294.53125 268.868421"></polygon>
            <polygon id="Path-3-Copy-130" fill="#3CF1FF" points="262 252.466667 277.46875 238 295 269"></polygon>
            <polygon id="Path-3-Copy-132" fill="#51E8F5" points="262 253 267 229 277 238.391304"></polygon>
            <polygon id="Path-3-Copy-126" fill="#104655" points="310 242 356 248 320.222222 257"></polygon>
            <polygon id="Path-3-Copy-98" fill="#34DEF5" points="367 242.554348 372.185185 225 395 309.673913 369.074074 320"></polygon>
            <polygon id="Path-3-Copy-122" fill="#47E8FF" points="372 225 400 232.170732 394.814815 309"></polygon>
            <polygon id="Path-3-Copy-32" fill="#24C6DB" points="236.173913 411 248.695652 411 256 424 232 422"></polygon>
            <polygon id="Path-3-Copy-35" fill="#32D2EC" points="249 411 286 433 256.194444 424.619048"></polygon>
            <polygon id="Path-3-Copy-34" fill="#11647A" points="232.175 422 256.775 424 266 434 225 436"></polygon>
            <polygon id="Path-3-Copy-52" fill="#187C94" points="257 424 285.848485 432 291 437 266.272727 434"></polygon>
            <polygon id="Path-3-Copy-25" fill="#5080BA" points="195 426 198 418 210 422"></polygon>
            <polygon id="Path-3-Copy-29" fill="#285775" points="195 426 210 422 209 436"></polygon>
            <polygon id="Path-3-Copy-30" fill="#08485C" points="211 422 225 436 210 436"></polygon>
            <polygon id="Path-3-Copy-33" fill="#1A7D97" points="210 422 232 422 224.666667 436"></polygon>
            <polygon id="Path-3-Copy-21" fill="#9DBAFF" points="143 430.631579 198 418 194.944444 426.421053 164.388889 438"></polygon>
            <polygon id="Path-3-Copy-20" fill="#958AFF" points="124 429 142.461538 431 164 438 140.410256 440"></polygon>
            <polygon id="Path-3-Copy-26" fill="#7F1294" points="141 440 165 438 154.565217 445 154.565217 450"></polygon>
            <polygon id="Path-3-Copy-28" fill="#4B2174" points="164.188679 438 208 436 166.226415 441 154 450 154 445"></polygon>
            <polygon id="Path-3-Copy-27" fill="#534380" points="164 438 194.697674 427 208 436 180.372093 438"></polygon>
            <polygon id="Path-3-Copy-12" fill="#A6BFFF" points="124 428.928571 165 373 142.45 431"></polygon>
            <polygon id="Path-3-Copy-3" fill="#91BEFF" points="181 309 145 265.156863 172.771429 257"></polygon>
            <polygon id="Path-4" fill="#34AAC9" points="195 208 209 222 197 221"></polygon>
            <polygon id="Path-4-Copy" fill="#4BDFFF" points="197 221 209 222 205 239"></polygon>
            <polygon id="Path-4-Copy-4" fill="#4AF9FF" points="222 222 231 232 215 238"></polygon>
            <polygon id="Path-4-Copy-11" fill="#7DFFFF" points="230.552632 309 244.921053 337.777778 248 346 209 343.944444"></polygon>
            <polygon id="Path-4-Copy-17" fill="#00A0A1" points="246.962963 346 249 350 233.722222 352 223.537037 362 194 349 200.111111 344 208.259259 344"></polygon>
            <polygon id="Path-4-Copy-18" fill="#AD1FCE" points="194.565217 349 215 370.567568 208.869565 387 187.413043 372.621622 168 359.27027 168 350.027027"></polygon>
            <polygon id="Path-4-Copy-14" fill="#2BE7FB" points="230 309 260.789474 319.27027 269 347 244.368421 337.756757"></polygon>
            <polygon id="Path-4-Copy-5" fill="#50FFFF" points="222 222 240 216 231 232"></polygon>
            <polygon id="Path-4-Copy-6" fill="#0BACBF" points="240.230769 216 271 216 261.769231 253 231 232.444444"></polygon>
            <polygon id="Path-4-Copy-12" fill="#08CCDA" points="231.033333 232 261 319 230 308.764706"></polygon>
            <polygon id="Path-4-Copy-15" fill="#008A99" points="261 319 275 339.588235 275 354 269 346.794118"></polygon>
            <polygon id="Path-4-Copy-19" fill="#125C6D" points="249 350 268.76 347 275 354"></polygon>
            <polygon id="Path-4-Copy-20" fill="#037080" points="262.52 359 249 350 275 354"></polygon>
            <polygon id="Path-4-Copy-21" fill="#324859" points="252 360 250 350 263 359"></polygon>
            <polygon id="Path-4-Copy-28" fill="#1A0913" points="240.3 376 234 367 255 369"></polygon>
            <polygon id="Path-4-Copy-31" fill="#161113" points="224.36 363 234.76 367 241 376 224.36 378 215 371"></polygon>
            <polygon id="Path-4-Copy-32" fill="#48013C" points="215 371 224 378 209 387"></polygon>
            <polygon id="Path-4-Copy-22" fill="#324859" points="245 353 234 352 249 350"></polygon>
            <polygon id="Path-4-Copy-23" fill="#221711" points="252 360 246 353 250 350"></polygon>
            <polygon id="Path-4-Copy-26" fill="#272325" points="251 361 238 363 234 356 245 354"></polygon>
            <polygon id="Path-4-Copy-27" fill="#2E1D1F" points="238 363 234 367 224 363 234 356"></polygon>
            <polygon id="Path-4-Copy-29" fill="#040000" points="217.276923 401 208 399.977778 208 387.711111 223.461538 378.511111 239.953846 376.466667 260.569231 366.244444 262.630769 360.111111 275 355 270.876923 365.222222 252.323077 383.622222 240.984615 388.733333"></polygon>
            <polygon id="Path-4-Copy-24" fill="#0E1311" points="246 354 234.47619 356 224 363 234.47619 353"></polygon>
            <polygon id="Path-4-Copy-25" fill="#030000" points="251.85 361 255 369 234 367 238.2 363"></polygon>
            <polygon id="Path-4-Copy-30" fill="#47134F" points="263 360 261 366 255 369 252 361"></polygon>
            <polygon id="Path-4-Copy-16" fill="#2ECBE3" points="244 338 269 347 249.208333 350 247.125 346"></polygon>
            <polygon id="Path-4-Copy-13" fill="#28D2E6" points="231 232 262 252.470588 260.966667 319"></polygon>
            <polygon id="Path-4-Copy-3" fill="#1FC4D7" points="222 222 233 208 240 216"></polygon>
            <polygon id="Path-4-Copy-2" fill="#90AFFF" points="164 226.192308 196.864865 221 202 248"></polygon>
            <polygon id="Path-4-Copy-7" fill="#ADACFF" points="172 257.173077 201.935484 248 204 301"></polygon>
            <polygon id="Path-4-Copy-9" fill="#6EDEFF" points="202 248 197 221 205 239.692308"></polygon>
            <polygon id="Path-4-Copy-10" fill="#9BCCFF" points="204 299 202 247.275862 205 239"></polygon>
            <polygon id="Path-4-Copy-8" fill="#BCB7FF" points="180.361111 309.185185 204 299 199.888889 343.814815 187.555556 354 167 349.925926 170.083333 335.666667"></polygon>
            <polygon id="Path-5" fill="#5FFFFF" points="233 208.032258 195 207 209.378378 221.451613 205.27027 239 214.513514 237.967742 221.702703 221.451613"></polygon>
            <polygon id="Path-5-Copy" fill="#6BFFFF" points="214.384615 238.165138 205.038462 239.192661 204 299.816514 208.153846 344 229.961538 309.06422 231 232"></polygon>
            <polygon id="Path-6" fill="#18B1C4" points="96 240 112.842105 224 116 240"></polygon>
            <polygon id="Path-7" fill="#A1E6FF" points="204 299 208 344 200 344"></polygon>
            <polygon id="Path-7-Copy" fill="#770C7A" points="194 349 224 362.619048 214.689655 371"></polygon>
            <polygon id="Path-7-Copy-2" fill="#770C7A" points="187 373 189 404 173 394.7"></polygon>
            <polygon id="Path-7-Copy-4" fill="#330033" points="187 373 209 387.466667 189.095238 404"></polygon>
            <polygon id="Path-7-Copy-5" fill="#58004E" points="189 404 209 388 209 400"></polygon>
            <polygon id="Path-7-Copy-3" fill="#43023A" points="167.095238 360 187 373.382353 172.333333 395 165 373.382353"></polygon>
            <polygon id="Path-8" fill="#000000" points="181 364 198 364 198 378"></polygon>
            <polygon id="Path-9" fill="#000000" points="154 450 166.340426 441 208.503546 436 209.531915 437 224.957447 437 266.092199 435 290.77305 438 299 441 294.886525 443 274.319149 441 243.468085 443 224.957447 448 194.106383 445 164.283688 447"></polygon>
            <polygon id="Path-10" fill="#01000B" points="426 184 426 193.257143 418 196.342857 409 220 416 190.171429"></polygon>
            <polygon id="Path-10-Copy" fill="#0A2B33" points="410 223 409 219.884615 418 196"></polygon>
            <polygon id="Path-10-Copy-2" fill="#1D3C3C" points="409 251 411 230.333333 410 223.1 409 220"></polygon>
            <polygon id="Path-11" fill="#000000" points="372 225 348.323529 236 324.647059 236 294.794118 235 267 230 303.029412 230 318.470588 232 337 232 360.676471 229"></polygon>
            <polygon id="Path-12" fill="#199AB0" points="418 239.25 446 261 446 232 422.148148 233.035714"></polygon>
            <polygon id="Path-12-Copy-16" fill="#199AB0" points="423 321.915254 423 355 429 320.881356 437 294 424 309.508475"></polygon>
            <polygon id="Path-12-Copy-17" fill="#0F8599" points="406.357143 319.217391 396 356 422.928571 319.217391 425 309 414.642857 324.326087"></polygon>
            <polygon id="Path-12-Copy-9" fill="#3FE4FF" points="414 250.52381 446 261 418.129032 239"></polygon>
            <polygon id="Path-12-Copy-27" fill="#2ABED6" points="425 309 429 303 420 291 413 294"></polygon>
            <polygon id="Path-12-Copy-18" fill="#4FFFFF" points="415 325 425 309.318182 420 302 411 307.227273"></polygon>
            <polygon id="Path-12-Copy-28" fill="#17B2C6" points="407 319.761905 415 325 411 307.190476 407 303"></polygon>
            <polygon id="Path-12-Copy-19" fill="#50FBFF" points="429.25 303 437.65 293.735294 445 268 431.35 286.529412 424 295.794118"></polygon>
            <polygon id="Path-12-Copy-14" fill="#1EB2C9" points="413.653846 366 423 355 408.461538 353 396 358"></polygon>
            <polygon id="Path-12-Copy-15" fill="#16CADA" points="408.461538 352.864865 423 354.918919 423 320 396 358"></polygon>
            <polygon id="Path-12-Copy-10" fill="#33A7C5" points="415.032258 259 446 261 414 251"></polygon>
            <polygon id="Path-12-Copy" fill="#00495A" points="422 233 446 232 436.608696 224 424.086957 224"></polygon>
            <polygon id="Path-12-Copy-12" fill="#006E7C" points="409 252 423 233.333333 424 224 411 230.222222"></polygon>
            <polygon id="Path-12-Copy-34" fill="#27738E" points="407 302.878788 411 307 420 301.848485 413 293.606061 417 284.333333 415 258.575758 414 250.333333 418 239 409 250.333333"></polygon>
            <polygon id="Path-12-Copy-2" fill="#25ACC3" points="446 232 446 215.304348 441 208 437 223.652174"></polygon>
            <polygon id="Path-12-Copy-3" fill="#02C3CD" points="437 224 441 209 430 212"></polygon>
            <polygon id="Path-12-Copy-5" fill="#000000" points="430 211 441 208 436 201"></polygon>
            <polygon id="Path-12-Copy-13" fill="#000000" points="394 366 414 366 396.105263 358"></polygon>
            <polygon id="Path-12-Copy-11" fill="#000000" points="415 268 430 260 415 259"></polygon>
            <polygon id="Path-12-Copy-23" fill="#000000" points="413 294 420 291 416 285"></polygon>
            <polygon id="Path-12-Copy-20" fill="#448CAA" points="415 276 430 260 415 267"></polygon>
            <polygon id="Path-12-Copy-22" fill="#2F4D58" points="446 261 430.5 260 415 276"></polygon>
            <polygon id="Path-12-Copy-21" fill="#023140" points="416.033333 285 446 261 415 276.652174"></polygon>
            <polygon id="Path-12-Copy-29" fill="#023140" points="437 298 444 270.46 446 261.28 450 247 447 272.5"></polygon>
            <polygon id="Path-12-Copy-33" fill="#2FC7E0" points="423 355 429 320.881356 437 294 432 320.881356"></polygon>
            <polygon id="Path-12-Copy-24" fill="#18708A" points="420.137931 291 446 261 416 284.793103"></polygon>
            <polygon id="Path-12-Copy-25" fill="#1799AF" points="424.16 296 446 261 420 290.852941"></polygon>
            <polygon id="Path-12-Copy-30" fill="#027286" points="450 247.704545 446 216 446 261"></polygon>
            <polygon id="Path-12-Copy-31" fill="#22CADE" points="452 264.372093 450 248 447 270.511628 440 292"></polygon>
            <polygon id="Path-12-Copy-32" fill="#35FFFF" points="437.263158 295.090909 452 264 432 321"></polygon>
            <polygon id="Path-12-Copy-26" fill="#157F97" points="424 296 443.904762 270.264706 446 261"></polygon>
            <polygon id="Path-12-Copy-6" fill="#000000" points="446 216 443 206 436 202"></polygon>
            <polygon id="Path-12-Copy-8" fill="#0393A3" points="447 205 441 193 436 201"></polygon>
            <polygon id="Path-12-Copy-7" fill="#9C05B6" points="452 264 453 227.852459 451 213.393443 447 205.131148 436 201 443 206.163934 446 215.459016"></polygon>
            <polygon id="Path-12-Copy-4" fill="#35C4DF" points="424 224 436 224 429 212"></polygon>
            <polygon id="Path-Copy-15" fill="#37E3FC" points="195 207.974359 233.104478 209 264 169"></polygon>
            <polygon id="Path-Copy-14" fill="#40E9FF" points="195.19469 208 265 169 149 169"></polygon>
            <polygon id="Path-Copy-2" fill="#44F7FF" points="233 107.208955 264.984127 169 298 100"></polygon>
            <polygon id="Path-Copy" fill="#2AD0E6" points="146 169 266 169 233.179487 107"></polygon>
            <polygon id="Path" fill="#40F0FF" points="122 107 146.666667 169 233 107"></polygon>
        </g>
        <circle id="Oval" fill="#FFFFFF" fill-rule="nonzero" style="mix-blend-mode: overlay;" filter="url(#filter-2)" cx="580" cy="407" r="88"></circle>
        <polygon id="Rectangle" fill="url(#radialGradient-3)" fill-rule="nonzero" points="-11 -465 902 -465 902 -186.95928 902 831 -11 831"></polygon>
    </g>
</svg>