
<svg viewBox="0 0 542 331" version="1.1" xmlns="http://www.w3.org/2000/svg" xmlns:xlink="http://www.w3.org/1999/xlink">
    <defs>
        <rect id="path-1" x="73" y="21" width="396.061611" height="185" rx="36"></rect>
        <filter x="-34.6%" y="-45.9%" width="169.2%" height="248.1%" filterUnits="objectBoundingBox" id="filter-2">
            <feOffset dx="0" dy="52" in="SourceAlpha" result="shadowOffsetOuter1"></feOffset>
            <feGaussianBlur stdDeviation="37" in="shadowOffsetOuter1" result="shadowBlurOuter1"></feGaussianBlur>
            <feColorMatrix values="0 0 0 0 0   0 0 0 0 0   0 0 0 0 0  0 0 0 0.173377404 0" type="matrix" in="shadowBlurOuter1"></feColorMatrix>
        </filter>
    </defs>
    <g id="Page-2" stroke="none" stroke-width="1" fill="none" fill-rule="evenodd">
        <g id="Rectangle-Copy">
            <use fill="black" fill-opacity="1" filter="url(#filter-2)" xlink:href="#path-1"></use>
            <use fill="#FF0006" fill-rule="evenodd" xlink:href="#path-1"></use>
        </g>
        <g id="Group" transform="translate(98.530806, 41.000000)" fill="#FFFFFF" fill-rule="nonzero">
            <g id="g726" transform="translate(60.000000, 67.000000) scale(-1, 1) rotate(-180.000000) translate(-60.000000, -67.000000) translate(0.500000, 0.000000)">
                <path d="M118.842105,5.68434189e-14 L118.842105,90.6669309 C118.842105,118.669647 103.971809,126.156046 80.5662532,126.156046 L34.5795986,126.156046 C29.3471788,126.156046 24.941722,130.039285 22.187685,133.92 L0.157894737,109.520445 L0.157894737,107.580087 C7.86619126,95.9354182 18.3310308,94.2700918 26.0418332,94.2700918 C16.6796109,85.3984437 11.7228455,81.5177285 11.7228455,77.9120445 L11.7228455,5.68434189e-14 L21.9120307,5.68434189e-14 L46.6958579,5.68434189e-14 L83.8690928,5.68434189e-14 L111.406957,6.58077037e-14 L118.842105,5.68434189e-14 Z M83.8690928,31.3308458 L46.6958579,31.3308458 L46.6958579,93.9925374 L75.885142,93.9925374 C79.463636,93.9925374 83.8690928,91.4995942 83.8690928,85.6759981 L83.8690928,31.3308458 Z" id="path728-9"></path>
            </g>
            <g id="g730" transform="translate(203.000000, 42.500000) scale(-1, 1) rotate(-180.000000) translate(-203.000000, -42.500000) translate(182.500000, 3.000000)">
                <path d="M41,0 L41,54.4477229 C41,64.3473089 37.5013379,72.5952956 29.4235444,78.9189189 L0.0769230769,60.7713462 L0.0769230769,58.0211832 C4.38409959,53.3466567 6.80719263,49.7706941 6.80719263,40.4216412 L6.80719263,0 L41,0 Z" id="path732-4"></path>
            </g>
            <g id="g734" transform="translate(288.500000, 67.000000) scale(-1, 1) rotate(-180.000000) translate(-288.500000, -67.000000) translate(232.500000, 0.000000)">
                <path d="M112,5.68434189e-14 L112,86.7326733 C112,114.721449 99.2556008,126.081881 73.4894763,126.081881 L42.7390437,126.081881 L34.7041475,126.081881 C29.4399921,126.081881 24.7304891,130.240227 22.2370745,133.84127 L0.0761904762,109.456059 L0.0761904762,107.516842 C9.77000152,95.0468451 12.8180685,93.9372801 20.5756385,93.9372801 L43.0163699,93.9372801 L68.7824944,93.9372801 C74.598781,93.9372801 76.8148694,91.1684113 76.8148694,86.1804126 L76.8148694,5.68434189e-14 L112,5.68434189e-14 Z M45.5097845,72.0460684 L10.8793063,72.0460684 C7.27658693,67.3354609 7.00178188,63.1796359 7.00178188,55.1428553 L7.00178188,5.68434189e-14 L42.1843913,5.68434189e-14 L42.1843913,53.2036385 C42.1843913,57.3619852 42.7390437,67.6128521 45.5097845,72.0460684 L45.5097845,72.0460684 Z" id="path736"></path>
            </g>
            <g id="g738" transform="translate(150.500000, 68.500000) scale(-1, 1) rotate(-180.000000) translate(-150.500000, -68.500000) translate(128.500000, 3.000000)">
                <path d="M43.4537466,108.17536 C46.7846078,126.480561 34.2900874,130.918033 22.0685056,130.918033 C9.84945096,130.918033 -2.64506942,126.758219 0.685791796,108.17536 L5.68461084,80.7150336 C7.90602738,67.9554097 15.4042559,10.2632307 15.4042559,5.68434189e-14 L22.0685056,5.68434189e-14 L28.4572895,5.68434189e-14 C28.4572895,10.2632307 36.233511,67.9554097 38.4549276,80.7150336 L43.4537466,108.17536 Z" id="path740"></path>
            </g>
        </g>
    </g>
</svg>