
<svg viewBox="0 0 199 155" version="1.1" xmlns="http://www.w3.org/2000/svg" xmlns:xlink="http://www.w3.org/1999/xlink">
    <defs>
        <filter x="-57.8%" y="-80.9%" width="215.6%" height="261.8%" filterUnits="objectBoundingBox" id="filter-1">
            <feOffset dx="0" dy="22" in="SourceAlpha" result="shadowOffsetOuter1"></feOffset>
            <feGaussianBlur stdDeviation="12" in="shadowOffsetOuter1" result="shadowBlurOuter1"></feGaussianBlur>
            <feColorMatrix values="0 0 0 0 0   0 0 0 0 0   0 0 0 0 0  0 0 0 0.053868007 0" type="matrix" in="shadowBlurOuter1" result="shadowMatrixOuter1"></feColorMatrix>
            <feMerge>
                <feMergeNode in="shadowMatrixOuter1"></feMergeNode>
                <feMergeNode in="SourceGraphic"></feMergeNode>
            </feMerge>
        </filter>
    </defs>
    <g id="Page-1" stroke="none" stroke-width="1" fill="none" fill-rule="evenodd">
        <g id="Group" filter="url(#filter-1)" transform="translate(23.000000, 1.000000)">
            <path d="M44.1356,75.8585 C44.1356,78.5785 41.9306,80.7845 39.2106,80.7845 C36.4896,80.7845 34.2836,78.5785 34.2836,75.8585 C34.2836,73.1375 36.4896,70.9325 39.2106,70.9325 C41.9306,70.9325 44.1356,73.1375 44.1356,75.8585" id="Fill-9" fill="#DD86B6"></path>
            <path d="M76.8436,86.1041 C76.8436,91.2181 72.6976,95.3651 67.5836,95.3651 C62.4676,95.3651 58.3226,91.2181 58.3226,86.1041 C58.3226,80.9901 62.4676,76.8431 67.5836,76.8431 C72.6976,76.8431 76.8436,80.9901 76.8436,86.1041" id="Fill-10" fill="#DD86B6"></path>
            <path d="M146.201,66.0064 C146.201,70.4674 142.584,74.0854 138.123,74.0854 C133.66,74.0854 130.044,70.4674 130.044,66.0064 C130.044,61.5454 133.66,57.9274 138.123,57.9274 C142.584,57.9274 146.201,61.5454 146.201,66.0064" id="Fill-11" fill="#DD86B6"></path>
            <path d="M15.369,87.6808 C15.369,91.9248 11.929,95.3648 7.684,95.3648 C3.44,95.3648 -2.7533531e-14,91.9248 -2.7533531e-14,87.6808 C-2.7533531e-14,83.4368 3.44,79.9958 7.684,79.9958 C11.929,79.9958 15.369,83.4368 15.369,87.6808" id="Fill-12" fill="#E6E0E4"></path>
            <path d="M18.1268,72.3116 C18.1268,75.2496 15.7448,77.6316 12.8068,77.6316 C9.8688,77.6316 7.4868,75.2496 7.4868,72.3116 C7.4868,69.3736 9.8688,66.9916 12.8068,66.9916 C15.7448,66.9916 18.1268,69.3736 18.1268,72.3116" id="Fill-13" fill="#E6E0E4"></path>
            <path d="M32.3143,85.1188 C32.3143,89.2538 28.9613,92.6058 24.8263,92.6058 C20.6923,92.6058 17.3393,89.2538 17.3393,85.1188 C17.3393,80.9838 20.6923,77.6318 24.8263,77.6318 C28.9613,77.6318 32.3143,80.9838 32.3143,85.1188" id="Fill-14" fill="#E6E0E4"></path>
            <path d="M46.1063,92.212 C46.1063,95.259 43.6363,97.73 40.5893,97.73 C37.5433,97.73 35.0733,95.259 35.0733,92.212 C35.0733,89.165 37.5433,86.695 40.5893,86.695 C43.6363,86.695 46.1063,89.165 46.1063,92.212" id="Fill-15" fill="#E6E0E4"></path>
            <path d="M38.2245,58.9132 C38.2245,63.8102 34.2555,67.7802 29.3585,67.7802 C24.4605,67.7802 20.4915,63.8102 20.4915,58.9132 C20.4915,54.0162 24.4605,50.0462 29.3585,50.0462 C34.2555,50.0462 38.2245,54.0162 38.2245,58.9132" id="Fill-16" fill="#E6E0E4"></path>
            <path d="M53.1991,63.4454 C53.1991,66.0564 51.0821,68.1744 48.4701,68.1744 C45.8591,68.1744 43.7421,66.0564 43.7421,63.4454 C43.7421,60.8334 45.8591,58.7164 48.4701,58.7164 C51.0821,58.7164 53.1991,60.8334 53.1991,63.4454" id="Fill-17" fill="#E6E0E4"></path>
            <path d="M55.1708,76.4498 C55.1708,78.6258 53.4058,80.3898 51.2308,80.3898 C49.0528,80.3898 47.2888,78.6258 47.2888,76.4498 C47.2888,74.2728 49.0528,72.5088 51.2308,72.5088 C53.4058,72.5088 55.1708,74.2728 55.1708,76.4498" id="Fill-18" fill="#E6E0E4"></path>
            <path d="M66.992,97.5318 C66.992,101.7758 63.552,105.2168 59.308,105.2168 C55.064,105.2168 51.624,101.7758 51.624,97.5318 C51.624,93.2878 55.064,89.8478 59.308,89.8478 C63.552,89.8478 66.992,93.2878 66.992,97.5318" id="Fill-19" fill="#E6E0E4"></path>
            <path d="M94.577,53.0021 C94.577,55.9401 92.195,58.3221 89.257,58.3221 C86.319,58.3221 83.937,55.9401 83.937,53.0021 C83.937,50.0641 86.319,47.6821 89.257,47.6821 C92.195,47.6821 94.577,50.0641 94.577,53.0021" id="Fill-20" fill="#E6E0E4"></path>
            <path d="M13.0047,104.8229 C13.0047,107.6529 10.7107,109.9459 7.8807,109.9459 C5.0527,109.9459 2.7577,107.6529 2.7577,104.8229 C2.7577,101.9929 5.0527,99.6999 7.8807,99.6999 C10.7107,99.6999 13.0047,101.9929 13.0047,104.8229" id="Fill-21" fill="#E6E0E4"></path>
            <path d="M130.0448,84.5284 C130.0448,90.2954 125.3688,94.9714 119.6028,94.9714 C113.8338,94.9714 109.1578,90.2954 109.1578,84.5284 C109.1578,78.7604 113.8338,74.0854 119.6028,74.0854 C125.3688,74.0854 130.0448,78.7604 130.0448,84.5284" id="Fill-22" fill="#6AC5DA"></path>
            <path d="M128.8612,64.6275 C128.8612,67.4565 126.5682,69.7505 123.7382,69.7505 C120.9102,69.7505 118.6162,67.4565 118.6162,64.6275 C118.6162,61.7975 120.9102,59.5045 123.7382,59.5045 C126.5682,59.5045 128.8612,61.7975 128.8612,64.6275" id="Fill-23" fill="#6AC5DA"></path>
            <path d="M69.7518,33.2989 C69.7518,37.3249 66.4878,40.5899 62.4608,40.5899 C58.4348,40.5899 55.1708,37.3249 55.1708,33.2989 C55.1708,29.2729 58.4348,26.0079 62.4608,26.0079 C66.4878,26.0079 69.7518,29.2729 69.7518,33.2989" id="Fill-24" fill="#6AC5DA"></path>
            <path d="M102.4598,79.7994 C102.4598,83.6084 99.3728,86.6954 95.5638,86.6954 C91.7538,86.6954 88.6668,83.6084 88.6668,79.7994 C88.6668,75.9904 91.7538,72.9034 95.5638,72.9034 C99.3728,72.9034 102.4598,75.9904 102.4598,79.7994" id="Fill-25" fill="#3F7EC0"></path>
            <path d="M70.1463,58.7159 C70.1463,63.0689 66.6183,66.5969 62.2653,66.5969 C57.9123,66.5969 54.3833,63.0689 54.3833,58.7159 C54.3833,54.3629 57.9123,50.8349 62.2653,50.8349 C66.6183,50.8349 70.1463,54.3629 70.1463,58.7159" id="Fill-26" fill="#DB4A93"></path>
            <path d="M94.9725,74.0851 C94.9725,79.3091 90.7385,83.5431 85.5155,83.5431 C80.2925,83.5431 76.0575,79.3091 76.0575,74.0851 C76.0575,68.8611 80.2925,64.6271 85.5155,64.6271 C90.7385,64.6271 94.9725,68.8611 94.9725,74.0851" id="Fill-27" fill="#DB4A93"></path>
            <path d="M91.0331,94.3795 C91.0331,97.9705 88.1211,100.8815 84.5301,100.8815 C80.9401,100.8815 78.0281,97.9705 78.0281,94.3795 C78.0281,90.7885 80.9401,87.8775 84.5301,87.8775 C88.1211,87.8775 91.0331,90.7885 91.0331,94.3795" id="Fill-28" fill="#DB4A93"></path>
            <path d="M115.8592,62.4601 C115.8592,66.9211 112.2422,70.5391 107.7812,70.5391 C103.3192,70.5391 99.7022,66.9211 99.7022,62.4601 C99.7022,57.9981 103.3192,54.3811 107.7812,54.3811 C112.2422,54.3811 115.8592,57.9981 115.8592,62.4601" id="Fill-29" fill="#DB4A93"></path>
            <path d="M93.7909,39.0128 C93.7909,43.8018 89.9089,47.6828 85.1209,47.6828 C80.3329,47.6828 76.4509,43.8018 76.4509,39.0128 C76.4509,34.2248 80.3329,30.3438 85.1209,30.3438 C89.9089,30.3438 93.7909,34.2248 93.7909,39.0128" id="Fill-30" fill="#DB4A93"></path>
            <path d="M52.6092,46.8941 C52.6092,50.8111 49.4332,53.9871 45.5162,53.9871 C41.5992,53.9871 38.4222,50.8111 38.4222,46.8941 C38.4222,42.9771 41.5992,39.8011 45.5162,39.8011 C49.4332,39.8011 52.6092,42.9771 52.6092,46.8941" id="Fill-31" fill="#E8A7CA"></path>
            <path d="M78.619,61.672 C78.619,66.133 75.003,69.75 70.54,69.75 C66.079,69.75 62.462,66.133 62.462,61.672 C62.462,57.211 66.079,53.593 70.54,53.593 C75.003,53.593 78.619,57.211 78.619,61.672" id="Fill-32" fill="#E8A7CA"></path>
            <path d="M128.8622,40.589 C128.8622,44.942 125.3342,48.47 120.9802,48.47 C116.6282,48.47 113.0992,44.942 113.0992,40.589 C113.0992,36.236 116.6282,32.708 120.9802,32.708 C125.3342,32.708 128.8622,36.236 128.8622,40.589" id="Fill-33" fill="#449DD7"></path>
            <path d="M145.4129,40.7857 C145.4129,43.2877 143.3849,45.3167 140.8819,45.3167 C138.3789,45.3167 136.3499,43.2877 136.3499,40.7857 C136.3499,38.2837 138.3789,36.2547 140.8819,36.2547 C143.3849,36.2547 145.4129,38.2837 145.4129,40.7857" id="Fill-34" fill="#449DD7"></path>
            <path d="M105.6122,48.4703 C105.6122,50.8643 103.6712,52.8053 101.2782,52.8053 C98.8832,52.8053 96.9422,50.8643 96.9422,48.4703 C96.9422,46.0763 98.8832,44.1353 101.2782,44.1353 C103.6712,44.1353 105.6122,46.0763 105.6122,48.4703" id="Fill-35" fill="#449DD7"></path>
            <path d="M144.6239,8.275 C144.6239,12.845 140.9189,16.55 136.3489,16.55 C131.7769,16.55 128.0729,12.845 128.0729,8.275 C128.0729,3.704 131.7769,-2.30926389e-14 136.3489,-2.30926389e-14 C140.9189,-2.30926389e-14 144.6239,3.704 144.6239,8.275" id="Fill-36" fill="#3566AF"></path>
            <path d="M109.9462,29.7521 C109.9462,33.7781 106.6812,37.0431 102.6552,37.0431 C98.6282,37.0431 95.3642,33.7781 95.3642,29.7521 C95.3642,25.7261 98.6282,22.4611 102.6552,22.4611 C106.6812,22.4611 109.9462,25.7261 109.9462,29.7521" id="Fill-37" fill="#3259A5"></path>
            <path d="M135.1659,29.7516 C135.1659,32.4726 132.9609,34.6776 130.2409,34.6776 C127.5199,34.6776 125.3139,32.4726 125.3139,29.7516 C125.3139,27.0306 127.5199,24.8256 130.2409,24.8256 C132.9609,24.8256 135.1659,27.0306 135.1659,29.7516" id="Fill-38" fill="#3259A5"></path>
            <path d="M153.2928,58.3219 C153.2928,62.6749 149.7648,66.2029 145.4108,66.2029 C141.0588,66.2029 137.5298,62.6749 137.5298,58.3219 C137.5298,53.9699 141.0588,50.4409 145.4108,50.4409 C149.7648,50.4409 153.2928,53.9699 153.2928,58.3219" id="Fill-39" fill="#3259A5"></path>
        </g>
    </g>
</svg>